<?xml version="1.0" encoding="UTF-8"?>
<!DOCTYPE svg PUBLIC "-//W3C//DTD SVG 1.1//EN" "http://www.w3.org/Graphics/SVG/1.1/DTD/svg11.dtd">
<svg version="1.1" xmlns="http://www.w3.org/2000/svg" xmlns:xlink="http://www.w3.org/1999/xlink" x="0" y="0" width="400.032" height="180" viewBox="0, 0, 400.032, 180">
  <g id="Layer_1">
    <path d="M400.091,129.619 L400.091,174.654 L-0.059,174.654 L-0.059,129.619 L400.091,129.619 z M96.083,137.987 C94.807,138.032 93.525,138.141 92.3,138.531 Q90.464,139.076 89.06,140.166 Q87.655,141.255 86.812,142.871 Q85.969,144.486 85.969,146.627 Q85.969,148.844 86.887,150.196 Q87.805,151.549 89.191,152.375 Q90.577,153.202 92.187,153.69 Q93.798,154.179 95.184,154.667 Q96.57,155.156 97.488,155.851 Q98.405,156.546 98.405,157.748 Q98.405,158.462 98.05,158.988 Q97.694,159.514 97.113,159.852 Q96.533,160.19 95.802,160.359 Q95.072,160.528 94.36,160.528 Q92.899,160.528 91.532,159.87 Q90.165,159.213 89.266,158.011 L85.108,162.594 Q87.018,164.36 89.228,165.149 Q91.438,165.938 94.023,165.938 Q96.083,165.938 97.937,165.412 Q99.791,164.886 101.196,163.796 Q102.601,162.707 103.425,161.054 Q104.249,159.401 104.249,157.184 Q104.249,154.855 103.35,153.465 Q102.451,152.075 101.084,151.248 Q99.717,150.422 98.143,149.971 Q96.57,149.52 95.203,149.069 Q93.836,148.619 92.937,147.98 Q92.038,147.341 92.038,146.139 Q92.038,145.388 92.412,144.862 Q92.787,144.336 93.386,144.016 Q93.985,143.697 94.66,143.547 Q95.334,143.397 95.971,143.397 Q97.057,143.397 98.274,143.829 Q99.492,144.261 100.203,145.162 L104.211,140.767 Q102.526,139.264 100.428,138.625 C98.662,138.159 99.731,138.399 97.197,138.027 L96.083,137.987 z M272.498,138.663 L254.48,138.663 L254.48,165.262 L273.172,165.262 L273.172,159.852 L260.324,159.852 L260.324,154.442 L271.823,154.442 L271.823,149.032 L260.324,149.032 L260.324,144.073 L272.498,144.073 L272.498,138.663 z M172.847,138.663 L164.082,138.663 L164.082,165.262 L173.634,165.262 Q176.593,165.262 179.29,164.398 Q181.987,163.533 184.047,161.862 Q186.107,160.19 187.324,157.729 Q188.542,155.268 188.542,152.037 Q188.542,148.393 187.287,145.839 Q186.032,143.284 183.897,141.687 Q181.762,140.09 178.896,139.377 Q176.031,138.663 172.847,138.663 z M173.371,144.073 Q175.207,144.073 176.874,144.542 Q178.541,145.012 179.777,145.951 Q181.013,146.89 181.743,148.337 Q182.474,149.783 182.474,151.737 Q182.474,153.991 181.743,155.55 Q181.013,157.109 179.739,158.067 Q178.466,159.025 176.724,159.438 Q174.982,159.852 172.959,159.852 L169.925,159.852 L169.925,144.073 L173.371,144.073 z M128.022,138.663 L120.755,138.663 L130.719,153.916 L130.719,165.262 L136.563,165.262 L136.563,153.916 L146.526,138.663 L139.597,138.663 L133.641,148.619 L128.022,138.663 z M216.061,138.663 L208.12,138.663 L208.12,165.262 L213.963,165.262 L213.963,146.327 L214.038,146.327 L225.613,165.262 L233.254,165.262 L233.254,138.663 L227.411,138.663 L227.411,157.147 L227.336,157.147 L216.061,138.663 z M297.282,138.663 L290.016,138.663 L299.979,153.916 L299.979,165.262 L305.823,165.262 L305.823,153.916 L315.787,138.663 L308.857,138.663 L302.901,148.619 L297.282,138.663 z" fill="#FFFFFF"/>
    <g>
      <path d="M52.9,67.757 Q52.9,73.236 50.838,78.044 Q48.775,82.853 45.151,86.487 Q41.528,90.121 36.734,92.19 Q31.939,94.259 26.476,94.259 Q20.902,94.259 16.107,92.19 Q11.313,90.121 7.69,86.487 Q4.066,82.853 2.003,78.044 Q-0.059,73.236 -0.059,67.757 L-0.059,29.848 Q-0.059,24.369 2.003,19.561 Q4.066,14.752 7.69,11.118 Q11.313,7.484 16.107,5.415 Q20.902,3.346 26.476,3.346 Q31.939,3.346 36.734,5.415 Q41.528,7.484 45.151,11.118 Q48.775,14.752 50.838,19.561 Q52.9,24.369 52.9,29.848 z M41.416,67.757 L41.416,29.848 Q41.416,26.717 40.246,23.978 Q39.075,21.238 37.068,19.225 Q35.061,17.212 32.33,16.038 Q29.598,14.864 26.476,14.864 Q23.354,14.864 20.623,16.038 Q17.891,17.212 15.829,19.225 Q13.766,21.238 12.595,23.978 Q11.425,26.717 11.425,29.848 L11.425,67.757 Q11.425,70.888 12.595,73.627 Q13.766,76.367 15.829,78.38 Q17.891,80.393 20.623,81.567 Q23.354,82.741 26.476,82.741 Q29.598,82.741 32.33,81.567 Q35.061,80.393 37.068,78.324 Q39.075,76.255 40.246,73.516 Q41.416,70.776 41.416,67.645 z" fill="#FFFFFF"/>
      <path d="M112.103,72.341 Q112.103,76.926 110.375,80.896 Q108.647,84.866 105.748,87.829 Q102.849,90.792 98.836,92.526 Q94.822,94.259 90.362,94.259 Q87.575,94.259 85.066,93.588 Q82.558,92.917 79.993,91.687 L79.993,113.604 L68.509,113.716 L68.509,34.769 L79.993,28.618 Q82.223,27.388 84.843,26.661 Q87.463,25.935 90.362,25.935 Q94.822,25.935 98.836,27.668 Q102.849,29.401 105.748,32.364 Q108.647,35.328 110.375,39.353 Q112.103,43.379 112.103,47.852 z M100.619,47.852 Q100.619,45.727 99.839,43.826 Q99.059,41.925 97.665,40.472 Q96.271,39.018 94.376,38.235 Q92.48,37.452 90.362,37.452 Q87.798,37.452 85.568,38.682 L79.993,41.59 L79.993,78.603 L85.568,81.511 Q87.798,82.741 90.362,82.741 Q92.48,82.741 94.376,81.902 Q96.271,81.064 97.665,79.666 Q99.059,78.268 99.839,76.367 Q100.619,74.466 100.619,72.341 z" fill="#FFFFFF"/>
      <path d="M154.136,92.693 Q153.356,92.917 152.575,93.141 Q151.238,93.476 149.677,93.476 Q144.213,93.476 140.646,91.799 Q137.078,90.121 134.959,87.326 Q132.841,84.53 132.005,81.064 Q131.169,77.597 131.169,74.019 L131.169,37.788 Q127.601,36.222 125.427,32.924 Q123.253,29.625 123.253,25.487 Q123.253,22.468 124.591,19.784 L131.726,4.8 L144.213,4.8 L135.517,22.804 Q135.182,23.474 135.182,24.257 Q135.182,25.487 136.13,26.438 Q137.078,27.388 138.416,27.388 L154.136,27.388 L154.136,38.906 L142.653,38.906 L142.653,75.249 Q142.653,78.156 143.656,79.666 Q144.659,81.175 146.053,81.846 Q147.447,82.517 149.063,82.573 Q150.68,82.629 152.018,82.629 Q152.464,82.629 153.356,82.406 Q153.802,82.294 154.136,82.182 z" fill="#FFFFFF"/>
      <path d="M178.999,16.318 L167.516,16.318 L167.516,4.8 L178.999,4.8 z M178.999,92.805 L167.516,92.805 L167.516,27.388 L178.999,27.388 z" fill="#FFFFFF"/>
      <path d="M258.829,92.805 L258.829,47.852 Q258.829,45.727 258.048,43.826 Q257.268,41.925 255.874,40.528 Q254.481,39.13 252.585,38.291 Q250.69,37.452 248.571,37.452 Q245.896,37.452 243.777,38.682 L237.422,42.149 Q238.202,44.609 238.202,47.852 L238.202,92.805 L226.719,92.805 L226.719,47.852 Q226.719,45.727 225.938,43.826 Q225.158,41.925 223.764,40.528 Q222.37,39.13 220.475,38.291 Q218.58,37.452 216.461,37.452 Q213.785,37.452 211.667,38.682 L206.092,41.702 L206.092,92.805 L194.609,92.805 L194.609,34.769 L206.092,28.618 Q208.322,27.388 210.942,26.661 Q213.562,25.935 216.461,25.935 Q220.921,25.935 224.823,27.556 Q228.726,29.177 231.624,32.085 L238.091,28.618 Q240.432,27.388 243.052,26.661 Q245.673,25.935 248.571,25.935 Q253.031,25.935 257.045,27.668 Q261.059,29.401 263.957,32.364 Q266.856,35.328 268.584,39.353 Q270.313,43.379 270.313,47.852 L270.313,92.805 z" fill="#FFFFFF"/>
      <path d="M297.406,16.318 L285.922,16.318 L285.922,4.8 L297.406,4.8 z M297.406,92.805 L285.922,92.805 L285.922,27.388 L297.406,27.388 z" fill="#FFFFFF"/>
      <path d="M341.669,92.693 Q340.888,92.917 340.108,93.141 Q338.77,93.476 337.209,93.476 Q331.746,93.476 328.178,91.799 Q324.61,90.121 322.492,87.326 Q320.373,84.53 319.537,81.064 Q318.701,77.597 318.701,74.019 L318.701,37.788 Q315.133,36.222 312.959,32.924 Q310.785,29.625 310.785,25.487 Q310.785,22.468 312.123,19.784 L319.258,4.8 L331.746,4.8 L323.049,22.804 Q322.715,23.474 322.715,24.257 Q322.715,25.487 323.662,26.438 Q324.61,27.388 325.948,27.388 L341.669,27.388 L341.669,38.906 L330.185,38.906 L330.185,75.249 Q330.185,78.156 331.188,79.666 Q332.192,81.175 333.585,81.846 Q334.979,82.517 336.596,82.573 Q338.212,82.629 339.55,82.629 Q339.996,82.629 340.888,82.406 Q341.334,82.294 341.669,82.182 z" fill="#FFFFFF"/>
      <path d="M378.573,98.62 Q378.35,99.291 378.238,99.906 Q378.127,100.521 378.127,101.08 Q378.127,102.198 378.907,102.925 Q379.688,103.652 380.691,103.652 L386.935,103.652 L386.935,115.17 L379.242,115.17 Q376.677,115.17 374.392,114.163 Q372.106,113.157 370.378,111.424 Q368.65,109.69 367.646,107.398 Q366.643,105.106 366.643,102.534 Q366.643,100.521 367.312,98.62 Q367.535,97.837 367.869,96.831 Q368.092,95.936 368.427,94.93 Q368.761,93.923 369.207,92.693 L349.473,27.388 L361.403,27.388 L374.782,74.354 L388.161,27.388 L400.091,27.388 z" fill="#FFFFFF"/>
    </g>
  </g>
</svg>
